<?xml version="1.0" encoding="UTF-8" ?>
<!DOCTYPE svg PUBLIC "-//W3C//DTD SVG 1.1//EN" "http://www.w3.org/Graphics/SVG/1.1/DTD/svg11.dtd">
<svg width="1181pt" height="1181pt" viewBox="0 0 1181 1181" version="1.1" xmlns="http://www.w3.org/2000/svg">
<g id="#000000ff">
<path fill="#000000" opacity="1.00" d=" M 0.00 0.00 L 1181.00 0.00 L 1181.00 1181.00 L 0.00 1181.00 L 0.00 0.00 M 443.00 202.61 C 409.58 207.92 378.11 225.14 355.84 250.66 C 339.44 269.51 327.82 292.52 322.73 316.99 C 322.39 320.36 321.39 323.61 320.75 326.93 C 320.23 331.27 320.72 335.67 320.18 340.01 C 319.52 343.29 319.38 346.68 319.79 350.01 C 320.89 355.30 320.16 360.73 320.71 366.08 C 321.32 369.40 322.32 372.65 322.68 376.02 C 327.11 397.50 336.44 417.99 349.88 435.34 C 355.21 442.82 362.04 449.02 368.53 455.47 C 373.63 460.52 380.10 463.92 385.13 469.04 C 351.84 490.69 328.33 526.73 321.84 565.90 C 319.97 571.78 320.70 577.96 320.26 584.02 C 319.58 587.63 319.26 591.36 319.96 595.00 C 321.07 600.88 319.72 607.00 321.33 612.82 C 322.44 617.04 322.74 621.42 324.01 625.60 C 332.67 660.66 354.84 692.23 385.12 711.96 C 380.59 716.59 374.82 719.74 370.06 724.11 C 365.07 728.74 360.29 733.58 355.62 738.52 C 338.08 758.76 325.92 783.83 321.76 810.32 C 319.93 816.05 320.72 822.09 320.26 827.99 C 319.59 831.61 319.29 835.34 319.87 839.01 C 320.82 843.63 320.25 848.38 320.63 853.07 C 322.86 865.29 325.55 877.53 330.46 889.02 C 337.46 906.49 348.25 922.23 361.09 935.91 C 381.24 956.00 406.98 970.76 434.92 976.59 C 443.76 979.01 452.96 979.02 461.98 980.31 C 470.72 980.84 479.36 979.11 488.02 978.42 C 521.45 973.56 553.01 956.74 575.80 931.80 C 595.38 910.17 608.84 882.80 612.73 853.80 C 613.75 848.60 614.48 843.31 614.36 838.00 C 614.55 791.70 614.20 745.40 614.54 699.11 C 617.39 700.49 619.71 702.68 622.12 704.70 C 641.37 720.08 664.66 730.26 688.93 734.33 C 693.99 734.69 698.90 736.34 704.00 736.35 C 710.33 736.37 716.66 736.35 723.00 736.36 C 728.76 736.52 734.27 734.51 740.00 734.21 C 764.18 730.02 787.33 719.74 806.43 704.30 C 834.90 681.89 854.08 648.32 859.68 612.60 C 861.18 607.18 860.05 601.49 860.91 595.99 C 861.49 593.03 861.60 589.97 861.15 586.99 C 860.07 581.70 860.90 576.26 860.24 570.94 C 858.56 563.84 857.66 556.59 855.42 549.63 C 845.83 516.93 824.53 487.65 795.90 469.08 C 800.75 464.09 807.02 460.79 812.00 455.93 C 818.47 449.53 825.28 443.36 830.66 435.96 C 845.50 416.96 855.43 394.16 859.32 370.39 C 861.22 364.42 860.10 358.11 860.85 352.00 C 861.51 348.71 861.64 345.30 861.04 342.00 C 860.12 337.03 860.86 331.93 860.25 326.93 C 859.57 323.62 858.58 320.37 858.25 317.00 C 854.21 297.95 846.39 279.67 835.24 263.69 C 814.47 233.29 781.56 211.56 745.53 204.12 C 742.12 203.23 738.67 202.45 735.13 202.46 C 730.06 202.09 725.13 200.31 720.00 200.62 C 633.33 200.62 546.66 200.61 460.00 200.62 C 454.22 200.27 448.77 202.79 443.00 202.61 Z" />
<path fill="#000000" opacity="1.00" d=" M 450.95 249.69 C 455.31 249.51 459.67 249.40 463.97 248.58 C 497.39 248.45 530.82 248.58 564.24 248.52 C 567.09 248.26 566.90 251.98 567.20 253.89 C 567.20 317.39 567.20 380.89 567.20 444.40 C 564.81 444.62 562.44 445.07 560.04 445.18 C 531.03 445.17 502.01 445.17 473.00 445.18 C 467.35 445.49 461.78 444.24 456.13 444.44 C 442.05 442.42 427.95 438.64 415.77 431.04 C 400.96 422.48 388.68 409.84 380.24 394.99 C 373.31 383.08 369.57 369.61 367.64 356.06 C 367.49 350.37 367.54 344.67 367.59 338.98 C 369.84 316.06 379.65 293.49 396.46 277.49 C 410.85 262.45 430.56 253.12 450.95 249.69 Z" />
<path fill="#000000" opacity="1.00" d=" M 614.37 249.42 C 616.41 248.36 618.74 248.54 620.96 248.51 C 652.98 248.59 685.00 248.44 717.01 248.59 C 723.31 249.91 729.87 248.99 736.07 250.93 C 754.08 254.83 771.16 263.70 784.05 276.95 C 794.26 286.64 802.04 298.79 807.07 311.90 C 810.39 320.27 812.01 329.17 813.36 338.02 C 813.31 346.24 814.18 354.61 812.13 362.66 C 807.90 389.17 792.15 413.71 769.61 428.35 C 759.75 435.00 748.59 439.61 737.06 442.37 C 731.88 442.64 726.98 444.81 721.76 444.55 C 685.97 444.74 650.17 444.63 614.38 444.61 C 614.41 379.54 614.43 314.48 614.37 249.42 Z" />
<path fill="#000000" opacity="1.00" d=" M 450.64 493.73 C 454.10 493.45 457.44 492.30 460.95 492.49 C 496.14 492.39 531.34 492.46 566.54 492.45 C 566.63 557.82 566.63 623.18 566.54 688.55 C 531.01 688.52 495.49 688.64 459.97 688.49 C 447.96 687.34 435.91 684.85 424.95 679.62 C 396.07 666.72 374.32 638.96 369.09 607.73 C 366.76 599.33 367.71 590.56 367.61 581.96 C 369.36 567.55 373.58 553.29 381.09 540.78 C 395.71 515.79 421.92 497.80 450.64 493.73 Z" />
<path fill="#000000" opacity="1.00" d=" M 702.46 492.96 C 719.66 491.12 737.36 493.48 753.38 500.14 C 780.24 511.24 801.45 534.94 809.48 562.88 C 811.27 568.44 812.00 574.25 813.22 579.95 C 813.64 585.95 813.40 591.99 813.41 598.01 C 811.41 618.71 803.32 639.08 789.40 654.70 C 781.20 664.44 770.76 672.24 759.46 678.04 C 733.58 690.98 702.21 692.10 675.45 681.18 C 647.40 669.82 625.15 644.83 617.71 615.41 C 616.14 610.64 615.98 605.58 614.77 600.73 C 613.06 582.62 616.34 564.10 624.28 547.71 C 636.72 522.14 660.68 502.30 688.39 495.56 C 692.95 494.06 697.78 493.92 702.46 492.96 Z" />
<path fill="#000000" opacity="1.00" d=" M 388.28 774.05 C 404.82 752.29 431.13 738.67 458.23 736.46 C 494.36 736.24 530.49 736.38 566.63 736.39 C 566.52 769.94 566.69 803.48 566.54 837.03 C 566.82 842.11 565.15 846.98 564.61 851.99 C 558.69 882.81 536.98 910.03 508.40 922.92 C 499.74 927.00 490.44 929.66 481.02 931.29 C 474.32 931.13 467.71 933.41 461.03 932.08 C 457.11 931.11 453.01 931.81 449.10 930.87 C 434.31 927.96 419.94 922.23 407.85 913.12 C 384.58 896.64 369.72 869.30 367.57 840.99 C 367.74 833.32 366.81 825.49 368.89 818.00 C 371.54 802.05 378.22 786.73 388.28 774.05 Z" />
</g>
<g id="#ffffffff">
<path fill="#ffffff" opacity="1.00" d=" M 443.00 202.61 C 448.77 202.79 454.22 200.27 460.00 200.62 C 546.66 200.61 633.33 200.62 720.00 200.62 C 725.13 200.31 730.06 202.09 735.13 202.46 C 738.67 202.45 742.12 203.23 745.53 204.12 C 781.56 211.56 814.47 233.29 835.24 263.69 C 846.39 279.67 854.21 297.95 858.25 317.00 C 858.58 320.37 859.57 323.62 860.25 326.93 C 860.86 331.93 860.12 337.03 861.04 342.00 C 861.64 345.30 861.51 348.71 860.85 352.00 C 860.10 358.11 861.22 364.42 859.32 370.39 C 855.43 394.16 845.50 416.96 830.66 435.96 C 825.28 443.36 818.47 449.53 812.00 455.93 C 807.02 460.79 800.75 464.09 795.90 469.08 C 824.53 487.65 845.83 516.93 855.42 549.63 C 857.66 556.59 858.56 563.84 860.24 570.94 C 860.90 576.26 860.07 581.70 861.15 586.99 C 861.60 589.97 861.49 593.03 860.91 595.99 C 860.05 601.49 861.18 607.18 859.68 612.60 C 854.08 648.32 834.90 681.89 806.43 704.30 C 787.33 719.74 764.18 730.02 740.00 734.21 C 734.27 734.51 728.76 736.52 723.00 736.36 C 716.66 736.35 710.33 736.37 704.00 736.35 C 698.90 736.34 693.99 734.69 688.93 734.33 C 664.66 730.26 641.37 720.08 622.12 704.70 C 619.71 702.68 617.39 700.49 614.54 699.11 C 614.20 745.40 614.55 791.70 614.36 838.00 C 614.48 843.31 613.75 848.60 612.73 853.80 C 608.84 882.80 595.38 910.17 575.80 931.80 C 553.01 956.74 521.45 973.56 488.02 978.42 C 479.36 979.11 470.72 980.84 461.98 980.31 C 452.96 979.02 443.76 979.01 434.92 976.59 C 406.98 970.76 381.24 956.00 361.09 935.91 C 348.25 922.23 337.46 906.49 330.46 889.02 C 325.55 877.53 322.86 865.29 320.63 853.07 C 320.25 848.38 320.82 843.63 319.87 839.01 C 319.29 835.34 319.59 831.61 320.26 827.99 C 320.72 822.09 319.93 816.05 321.76 810.32 C 325.92 783.83 338.08 758.76 355.62 738.52 C 360.29 733.58 365.07 728.74 370.06 724.11 C 374.82 719.74 380.59 716.59 385.12 711.96 C 354.84 692.23 332.67 660.66 324.01 625.60 C 322.74 621.42 322.44 617.04 321.33 612.82 C 319.72 607.00 321.07 600.88 319.96 595.00 C 319.26 591.36 319.58 587.63 320.26 584.02 C 320.70 577.96 319.97 571.78 321.84 565.90 C 328.33 526.73 351.84 490.69 385.13 469.04 C 380.10 463.92 373.63 460.52 368.53 455.47 C 362.04 449.02 355.21 442.82 349.88 435.34 C 336.44 417.99 327.11 397.50 322.68 376.02 C 322.32 372.65 321.32 369.40 320.71 366.08 C 320.16 360.73 320.89 355.30 319.79 350.01 C 319.38 346.68 319.52 343.29 320.18 340.01 C 320.72 335.67 320.23 331.27 320.75 326.93 C 321.39 323.61 322.39 320.36 322.73 316.99 C 327.82 292.52 339.44 269.51 355.84 250.66 C 378.11 225.14 409.58 207.92 443.00 202.61 M 450.95 249.69 C 430.56 253.12 410.85 262.45 396.46 277.49 C 379.65 293.49 369.84 316.06 367.59 338.98 C 367.54 344.67 367.49 350.37 367.64 356.06 C 369.57 369.61 373.31 383.08 380.24 394.99 C 388.68 409.84 400.96 422.48 415.77 431.04 C 427.95 438.64 442.05 442.42 456.13 444.44 C 461.78 444.24 467.35 445.49 473.00 445.18 C 502.01 445.17 531.03 445.17 560.04 445.18 C 562.44 445.07 564.81 444.62 567.20 444.40 C 567.20 380.89 567.20 317.39 567.20 253.89 C 566.90 251.98 567.09 248.26 564.24 248.52 C 530.82 248.58 497.39 248.45 463.97 248.58 C 459.67 249.40 455.31 249.51 450.95 249.69 M 614.37 249.42 C 614.43 314.48 614.41 379.54 614.38 444.61 C 650.17 444.63 685.97 444.74 721.76 444.55 C 726.98 444.81 731.88 442.64 737.06 442.37 C 748.59 439.61 759.75 435.00 769.61 428.35 C 792.15 413.71 807.90 389.17 812.13 362.66 C 814.18 354.61 813.31 346.24 813.36 338.02 C 812.01 329.17 810.39 320.27 807.07 311.90 C 802.04 298.79 794.26 286.64 784.05 276.95 C 771.16 263.70 754.08 254.83 736.07 250.93 C 729.87 248.99 723.31 249.91 717.01 248.59 C 685.00 248.44 652.98 248.59 620.96 248.51 C 618.74 248.54 616.41 248.36 614.37 249.42 M 450.64 493.73 C 421.92 497.80 395.71 515.79 381.09 540.78 C 373.58 553.29 369.36 567.55 367.61 581.96 C 367.71 590.56 366.76 599.33 369.09 607.73 C 374.32 638.96 396.07 666.72 424.95 679.62 C 435.91 684.85 447.96 687.34 459.97 688.49 C 495.49 688.64 531.01 688.52 566.54 688.55 C 566.63 623.18 566.63 557.82 566.54 492.45 C 531.34 492.46 496.14 492.39 460.95 492.49 C 457.44 492.30 454.10 493.45 450.64 493.73 M 702.46 492.96 C 697.78 493.92 692.95 494.06 688.39 495.56 C 660.68 502.30 636.72 522.14 624.28 547.71 C 616.34 564.10 613.06 582.62 614.77 600.73 C 615.98 605.58 616.14 610.64 617.71 615.41 C 625.15 644.83 647.40 669.82 675.45 681.18 C 702.21 692.10 733.58 690.98 759.46 678.04 C 770.76 672.24 781.20 664.44 789.40 654.70 C 803.32 639.08 811.41 618.71 813.41 598.01 C 813.40 591.99 813.64 585.95 813.22 579.95 C 812.00 574.25 811.27 568.44 809.48 562.88 C 801.45 534.94 780.24 511.24 753.38 500.14 C 737.36 493.48 719.66 491.12 702.46 492.96 M 388.28 774.05 C 378.22 786.73 371.54 802.05 368.89 818.00 C 366.81 825.49 367.74 833.32 367.57 840.99 C 369.72 869.30 384.58 896.64 407.85 913.12 C 419.94 922.23 434.31 927.96 449.10 930.87 C 453.01 931.81 457.11 931.11 461.03 932.08 C 467.71 933.41 474.32 931.13 481.02 931.29 C 490.44 929.66 499.74 927.00 508.40 922.92 C 536.98 910.03 558.69 882.81 564.61 851.99 C 565.15 846.98 566.82 842.11 566.54 837.03 C 566.69 803.48 566.52 769.94 566.63 736.39 C 530.49 736.38 494.36 736.24 458.23 736.46 C 431.13 738.67 404.82 752.29 388.28 774.05 Z" />
</g>
</svg>
