<?xml version="1.0" encoding="UTF-8" ?>
<!DOCTYPE svg PUBLIC "-//W3C//DTD SVG 1.1//EN" "http://www.w3.org/Graphics/SVG/1.1/DTD/svg11.dtd">
<svg width="1181pt" height="1181pt" viewBox="0 0 1181 1181" version="1.1" xmlns="http://www.w3.org/2000/svg">
<g id="#000000ff">
<path fill="#000000" opacity="1.00" d=" M 0.00 0.00 L 1181.00 0.00 L 1181.00 1181.00 L 0.00 1181.00 L 0.00 0.00 M 813.03 295.01 C 809.18 295.50 804.79 294.05 801.56 296.78 C 797.47 297.17 794.10 299.54 790.48 301.26 C 787.19 302.51 785.14 305.73 781.67 306.65 C 777.62 310.00 774.01 313.91 771.57 318.60 C 767.58 322.65 766.76 328.31 764.33 333.16 C 764.09 335.41 764.20 337.69 764.05 339.95 C 764.20 341.62 762.33 342.59 762.31 344.21 C 762.18 348.66 762.07 353.14 762.44 357.59 C 764.37 360.21 764.26 363.47 764.26 366.58 C 766.30 367.95 766.15 370.40 766.51 372.57 C 768.93 377.12 771.08 381.82 773.73 386.25 C 776.04 389.30 778.82 391.97 781.64 394.55 C 783.97 395.65 786.09 397.11 788.03 398.83 C 793.67 401.93 799.67 404.63 805.96 405.96 C 814.63 406.25 823.33 406.29 831.99 405.94 C 839.56 404.07 846.57 400.42 853.39 396.64 C 856.84 393.28 860.30 389.92 863.52 386.34 C 867.03 380.66 869.54 374.45 872.70 368.58 C 873.68 366.00 872.90 363.12 873.46 360.45 C 874.17 359.04 875.21 357.70 875.07 356.03 C 875.14 351.68 875.16 347.33 875.06 342.98 C 875.19 341.31 874.05 340.04 873.40 338.64 C 873.12 335.79 873.65 332.67 871.50 330.40 C 870.82 325.51 867.96 321.36 865.80 317.02 C 862.12 313.07 860.42 306.89 854.63 305.38 C 851.75 301.95 847.47 300.58 843.65 298.54 C 841.24 296.61 837.72 297.76 835.52 295.43 C 831.46 294.67 827.26 295.38 823.16 294.89 C 821.71 294.34 820.55 292.96 818.89 293.19 C 816.63 292.72 815.19 295.11 813.03 295.01 M 426.37 331.40 C 425.17 332.65 423.73 334.10 423.80 335.98 C 423.69 342.94 423.79 349.90 423.63 356.86 C 423.67 358.49 422.31 359.66 421.76 361.11 C 421.43 363.88 421.52 366.68 421.52 369.48 C 420.99 369.68 419.94 370.10 419.42 370.31 C 419.58 372.92 419.38 375.55 417.54 377.57 C 417.50 381.51 414.85 384.48 414.49 388.36 C 412.99 390.08 412.91 392.35 412.43 394.47 C 411.15 396.28 410.60 398.38 410.40 400.57 C 408.94 403.91 406.66 406.99 406.19 410.70 C 405.41 413.24 404.14 415.65 404.26 418.41 C 403.63 419.05 403.06 419.74 402.54 420.48 C 402.45 424.42 399.74 427.41 399.61 431.37 C 397.35 433.28 398.48 436.62 396.72 438.79 C 395.19 441.05 396.28 444.39 393.63 446.01 C 393.57 447.46 393.52 448.92 393.46 450.38 C 391.41 452.25 390.82 455.05 389.65 457.46 C 389.20 461.03 387.23 464.09 386.54 467.60 C 384.80 470.05 385.62 473.40 383.67 475.73 C 382.67 477.93 383.13 480.66 381.29 482.54 C 381.10 486.56 377.73 489.53 378.58 493.72 C 378.07 493.94 377.06 494.38 376.55 494.61 C 376.63 497.14 376.57 499.77 374.74 501.74 C 374.27 505.75 372.05 509.14 370.53 512.81 C 369.22 518.75 366.35 524.15 364.90 530.04 C 363.03 532.55 364.76 536.48 361.60 538.08 C 361.55 539.53 361.51 540.98 361.47 542.44 C 358.99 543.77 359.27 546.51 359.27 548.93 C 358.24 549.81 357.00 550.64 357.25 552.20 C 357.24 556.27 354.07 559.34 353.17 563.20 C 352.54 566.38 350.62 569.11 350.27 572.39 C 348.81 574.53 348.26 577.03 348.47 579.61 C 347.98 579.82 347.00 580.24 346.51 580.45 C 347.16 584.57 343.79 587.72 344.31 591.82 C 341.07 593.72 343.18 598.11 340.39 600.48 C 340.35 604.87 337.19 608.16 336.08 612.24 C 335.61 615.46 333.62 618.15 333.22 621.40 C 331.83 623.58 331.14 626.03 331.38 628.63 C 330.89 628.85 329.92 629.30 329.43 629.52 C 329.22 631.45 329.61 633.61 328.45 635.32 C 326.80 637.75 327.11 640.93 325.40 643.38 C 325.49 647.16 322.57 649.80 322.68 653.59 C 320.84 657.03 318.96 660.52 318.27 664.41 C 316.88 666.58 316.22 669.04 316.44 671.64 C 315.95 671.85 314.96 672.28 314.46 672.49 C 314.54 675.03 314.35 677.61 312.64 679.65 C 312.16 683.43 309.97 686.60 309.48 690.39 C 307.70 692.54 308.09 695.50 306.75 697.84 C 305.45 699.93 306.41 702.87 304.41 704.60 C 303.17 706.12 304.12 708.45 302.99 710.08 C 301.42 713.47 298.80 716.66 299.35 720.62 C 298.87 720.84 297.90 721.28 297.41 721.50 C 297.95 725.85 294.93 729.20 294.52 733.40 C 292.71 735.81 293.05 739.06 291.26 741.49 C 290.64 743.82 290.40 746.25 288.93 748.29 C 288.40 751.76 286.80 754.94 286.20 758.40 C 284.56 761.94 282.34 765.30 281.93 769.28 C 280.00 772.06 280.25 775.60 278.37 778.41 C 278.10 782.03 275.58 784.83 275.44 788.50 C 273.90 790.52 273.36 792.93 273.41 795.45 C 270.64 797.15 272.11 800.82 270.08 803.01 C 267.80 806.17 270.02 811.04 274.04 810.82 C 303.60 810.84 333.16 810.85 362.72 810.81 C 366.55 807.23 369.31 802.59 370.08 797.37 C 371.62 795.35 371.78 792.87 372.32 790.50 C 374.29 788.12 373.55 784.75 375.35 782.29 C 377.69 774.11 381.01 766.24 383.24 758.05 C 385.56 755.16 383.96 751.11 386.14 748.19 C 387.08 746.53 386.45 744.34 387.60 742.77 C 389.36 740.89 388.43 737.98 390.03 736.02 C 391.29 734.22 390.76 731.75 391.98 729.95 C 393.60 727.99 392.84 725.18 394.31 723.17 C 395.62 721.40 395.11 718.99 396.32 717.18 C 397.80 715.21 397.18 712.50 398.55 710.50 C 400.04 708.56 399.34 705.84 400.73 703.87 C 402.08 702.05 401.82 699.66 402.25 697.54 C 441.83 697.19 481.42 697.49 521.00 697.39 C 539.19 697.54 557.39 697.08 575.57 697.64 C 575.64 699.38 575.69 701.13 575.73 702.89 C 576.77 703.79 578.01 704.62 577.82 706.21 C 577.74 709.38 580.46 711.56 580.27 714.77 C 582.45 720.46 584.08 726.35 586.23 732.04 C 586.64 736.69 590.75 740.07 590.80 744.80 C 590.77 746.26 592.42 747.01 592.54 748.45 C 592.71 752.05 595.20 754.84 595.50 758.43 C 598.08 760.83 595.94 765.23 599.23 767.05 C 599.28 768.98 599.25 771.01 600.39 772.70 C 601.71 774.91 600.72 778.15 603.25 779.66 C 603.32 780.74 603.43 781.83 603.58 782.92 C 606.78 791.31 609.64 799.93 612.51 808.48 C 615.29 808.61 617.09 811.34 619.95 810.85 C 652.10 810.76 684.25 810.93 716.40 810.76 C 717.18 809.50 718.03 808.28 718.88 807.07 C 716.00 804.35 718.02 799.60 714.78 797.35 C 714.92 794.83 713.92 792.61 712.72 790.48 C 712.32 786.49 709.97 783.15 708.44 779.58 C 708.15 775.94 705.53 773.20 705.54 769.50 C 703.26 767.28 704.44 763.72 702.35 761.45 C 701.29 760.06 701.66 758.19 701.40 756.58 C 700.63 755.75 699.50 755.05 699.56 753.79 C 699.31 750.04 697.37 746.74 695.74 743.45 C 695.25 741.59 695.39 739.50 694.09 737.97 C 692.98 736.42 693.39 734.31 692.43 732.72 C 690.57 730.30 691.21 726.93 689.27 724.54 C 689.01 720.50 686.73 717.16 684.88 713.70 C 684.96 709.85 682.00 707.12 682.02 703.28 C 679.22 698.44 678.95 692.56 676.35 687.59 C 675.83 683.93 673.95 680.74 672.21 677.56 C 671.50 675.23 672.25 672.26 669.62 671.01 C 669.57 669.50 669.52 668.01 669.46 666.53 C 666.43 664.64 668.12 660.61 665.66 658.30 C 665.18 655.95 664.77 653.57 663.42 651.54 C 662.98 648.11 661.32 645.10 659.98 641.98 C 658.79 639.88 659.07 637.25 657.59 635.30 C 656.54 633.65 657.15 631.46 656.11 629.83 C 654.22 627.31 654.73 623.91 652.87 621.34 C 652.16 617.47 650.20 614.03 648.46 610.56 C 648.10 608.42 647.89 606.19 646.42 604.49 C 646.06 600.62 643.53 597.62 643.35 593.72 C 640.65 591.54 642.69 587.30 639.62 585.45 C 639.95 580.18 635.46 576.30 635.20 571.18 C 635.16 569.73 633.68 568.91 633.50 567.53 C 632.48 561.95 629.31 557.08 628.52 551.46 C 626.01 547.35 626.23 541.90 622.55 538.38 C 622.32 536.49 622.65 534.35 621.30 532.81 C 619.68 530.59 620.34 527.55 618.82 525.24 C 618.14 521.79 616.14 518.83 615.61 515.35 C 614.15 511.44 611.63 507.95 611.34 503.68 C 608.90 501.38 610.49 497.41 607.60 495.48 C 607.34 493.83 607.65 491.97 606.69 490.52 C 604.71 488.18 605.53 484.77 603.53 482.42 C 602.80 477.12 598.99 472.88 598.52 467.51 C 597.18 465.74 596.88 463.57 596.52 461.46 C 595.76 460.01 594.62 458.70 594.64 456.98 C 594.71 454.67 592.77 453.07 592.53 450.86 C 592.21 447.09 589.31 444.24 588.31 440.75 C 588.27 437.33 585.61 434.87 585.67 431.40 C 584.21 429.40 583.81 427.04 583.38 424.67 C 581.32 422.64 581.91 419.60 580.63 417.22 C 579.86 415.71 579.73 414.01 579.32 412.41 C 577.88 408.69 575.34 405.38 575.04 401.30 C 573.37 399.37 573.33 396.84 572.65 394.52 C 571.31 392.75 571.06 390.56 570.61 388.46 C 568.63 385.69 568.99 382.08 566.98 379.32 C 566.62 374.19 562.59 370.31 562.00 365.25 C 558.82 356.32 556.59 347.04 552.07 338.62 C 551.68 336.55 551.99 334.19 550.15 332.73 C 549.19 330.80 546.80 331.48 545.08 331.32 C 505.51 331.40 465.94 331.23 426.37 331.40 M 768.52 447.27 C 768.20 490.84 768.47 534.42 768.38 578.00 C 768.40 654.00 768.35 730.00 768.40 806.00 C 767.94 808.57 770.61 810.95 773.05 810.86 C 803.37 810.87 833.69 810.87 864.00 810.86 C 866.52 811.07 869.14 808.58 868.74 806.00 C 868.80 688.00 868.76 570.00 868.77 452.00 C 869.15 449.41 866.54 446.88 864.00 447.14 C 832.18 447.23 800.34 446.98 768.52 447.27 Z" />
<path fill="#000000" opacity="1.00" d=" M 485.66 414.39 C 487.01 414.63 488.45 414.64 489.73 415.24 C 490.13 417.83 489.64 420.70 491.02 423.05 C 492.44 425.06 491.81 427.82 493.35 429.78 C 494.69 431.47 494.25 433.72 494.41 435.72 C 494.91 435.96 495.91 436.44 496.41 436.68 C 496.44 438.40 496.49 440.13 496.55 441.87 C 499.65 443.42 498.05 447.05 499.04 449.70 C 501.68 454.34 501.69 460.02 504.29 464.72 C 505.10 466.68 504.86 469.01 506.24 470.75 C 507.77 473.20 506.49 476.49 508.18 478.90 C 509.55 480.94 508.96 483.70 510.55 485.65 C 511.85 487.33 511.35 489.53 511.50 491.50 C 512.00 491.72 513.00 492.14 513.50 492.35 C 513.31 494.95 513.57 497.56 515.37 499.60 C 515.93 502.33 515.42 505.36 517.42 507.64 C 517.79 511.53 520.37 514.59 520.34 518.54 C 522.09 520.42 522.04 522.99 522.80 525.27 C 524.47 527.49 524.03 530.33 524.45 532.92 C 526.51 535.87 526.17 539.63 528.12 542.65 C 528.53 546.20 530.89 549.09 530.96 552.73 C 533.72 555.52 531.96 559.79 534.28 562.79 C 535.39 564.67 534.68 567.18 536.16 568.92 C 537.67 570.94 536.61 573.89 538.42 575.78 C 539.74 577.37 539.24 579.53 539.45 581.44 C 539.96 581.66 540.97 582.11 541.48 582.34 C 540.69 587.07 543.18 591.18 543.92 595.70 C 546.27 598.50 545.61 602.21 545.63 605.58 C 507.00 605.62 468.37 605.58 429.74 605.60 C 429.79 603.35 428.95 600.61 430.87 598.90 C 432.26 597.17 431.39 594.57 432.67 592.75 C 434.19 590.76 433.58 588.01 434.92 585.95 C 436.63 583.32 435.41 579.76 437.40 577.25 C 438.60 575.42 437.93 572.96 439.28 571.20 C 441.29 568.42 439.62 564.58 441.86 561.88 C 442.85 558.14 444.64 554.52 444.71 550.59 C 448.20 548.41 445.43 543.73 448.00 541.01 C 449.32 539.23 448.49 536.66 449.81 534.87 C 451.40 532.91 450.59 530.08 452.09 528.07 C 454.09 525.52 452.27 521.79 454.58 519.42 C 455.81 517.60 455.07 515.07 456.43 513.27 C 457.79 511.20 457.26 508.48 458.71 506.44 C 460.38 504.14 459.04 500.97 460.61 498.63 C 462.14 496.67 461.48 493.93 462.82 491.89 C 464.40 489.62 463.67 486.68 463.89 484.10 C 466.79 482.71 465.30 479.15 466.99 476.98 C 468.76 475.11 467.61 472.15 469.28 470.23 C 471.46 467.50 468.95 463.03 472.38 461.00 C 471.74 457.02 475.07 454.18 474.94 450.26 C 477.83 447.19 475.75 442.57 478.47 439.44 C 479.68 432.98 483.23 427.12 483.38 420.43 C 484.71 418.65 485.42 416.58 485.66 414.39 Z" />
</g>
<g id="#ffffffff">
<path fill="#ffffff" opacity="1.00" d=" M 813.03 295.01 C 815.19 295.11 816.63 292.72 818.89 293.19 C 820.55 292.96 821.71 294.34 823.16 294.89 C 827.26 295.38 831.46 294.67 835.52 295.43 C 837.72 297.76 841.24 296.61 843.65 298.54 C 847.47 300.58 851.75 301.95 854.63 305.38 C 860.42 306.89 862.12 313.07 865.80 317.02 C 867.96 321.36 870.82 325.51 871.50 330.40 C 873.65 332.67 873.12 335.79 873.40 338.64 C 874.05 340.04 875.19 341.31 875.06 342.98 C 875.16 347.33 875.14 351.68 875.07 356.03 C 875.21 357.70 874.17 359.04 873.46 360.45 C 872.90 363.12 873.68 366.00 872.70 368.58 C 869.54 374.45 867.03 380.66 863.52 386.34 C 860.30 389.92 856.84 393.28 853.39 396.64 C 846.57 400.42 839.56 404.07 831.99 405.94 C 823.33 406.29 814.63 406.25 805.96 405.96 C 799.67 404.63 793.67 401.93 788.03 398.83 C 786.09 397.11 783.97 395.65 781.64 394.55 C 778.82 391.97 776.04 389.30 773.73 386.25 C 771.08 381.82 768.93 377.12 766.51 372.57 C 766.15 370.40 766.30 367.95 764.26 366.58 C 764.26 363.47 764.37 360.21 762.44 357.59 C 762.07 353.14 762.18 348.66 762.31 344.21 C 762.33 342.59 764.20 341.62 764.05 339.95 C 764.20 337.69 764.09 335.41 764.33 333.16 C 766.76 328.31 767.58 322.65 771.57 318.60 C 774.01 313.91 777.62 310.00 781.67 306.65 C 785.14 305.73 787.19 302.51 790.48 301.26 C 794.10 299.54 797.47 297.17 801.56 296.78 C 804.79 294.05 809.18 295.50 813.03 295.01 Z" />
<path fill="#ffffff" opacity="1.00" d=" M 426.37 331.40 C 465.94 331.23 505.51 331.40 545.08 331.32 C 546.80 331.48 549.19 330.80 550.15 332.73 C 551.99 334.19 551.68 336.55 552.07 338.62 C 556.59 347.04 558.82 356.32 562.00 365.25 C 562.59 370.31 566.62 374.19 566.98 379.32 C 568.99 382.08 568.63 385.69 570.61 388.46 C 571.06 390.56 571.31 392.75 572.65 394.52 C 573.33 396.84 573.37 399.37 575.04 401.30 C 575.34 405.38 577.88 408.69 579.32 412.41 C 579.73 414.01 579.86 415.71 580.63 417.22 C 581.91 419.60 581.32 422.64 583.38 424.67 C 583.81 427.04 584.21 429.40 585.67 431.40 C 585.61 434.87 588.27 437.33 588.31 440.75 C 589.31 444.24 592.21 447.09 592.53 450.86 C 592.77 453.07 594.71 454.67 594.64 456.98 C 594.62 458.70 595.76 460.01 596.52 461.46 C 596.88 463.57 597.18 465.74 598.52 467.51 C 598.99 472.88 602.80 477.12 603.53 482.42 C 605.53 484.77 604.71 488.18 606.69 490.52 C 607.65 491.97 607.34 493.83 607.60 495.48 C 610.49 497.41 608.90 501.38 611.34 503.68 C 611.63 507.95 614.15 511.44 615.61 515.35 C 616.14 518.83 618.14 521.79 618.82 525.24 C 620.34 527.55 619.68 530.59 621.30 532.81 C 622.65 534.35 622.32 536.49 622.55 538.38 C 626.23 541.90 626.01 547.35 628.52 551.46 C 629.31 557.08 632.48 561.95 633.50 567.53 C 633.68 568.91 635.16 569.73 635.20 571.18 C 635.46 576.30 639.95 580.18 639.62 585.45 C 642.69 587.30 640.65 591.54 643.35 593.72 C 643.53 597.62 646.06 600.62 646.42 604.49 C 647.89 606.19 648.10 608.42 648.46 610.56 C 650.20 614.03 652.16 617.47 652.87 621.34 C 654.73 623.91 654.22 627.31 656.11 629.83 C 657.15 631.46 656.54 633.65 657.59 635.30 C 659.07 637.25 658.79 639.88 659.98 641.98 C 661.32 645.10 662.98 648.11 663.42 651.54 C 664.77 653.57 665.18 655.95 665.66 658.30 C 668.12 660.61 666.43 664.64 669.46 666.53 C 669.52 668.01 669.57 669.50 669.62 671.01 C 672.25 672.26 671.50 675.23 672.21 677.56 C 673.95 680.74 675.83 683.93 676.35 687.59 C 678.95 692.56 679.22 698.44 682.02 703.28 C 682.00 707.12 684.96 709.85 684.88 713.70 C 686.73 717.16 689.01 720.50 689.27 724.54 C 691.21 726.93 690.57 730.30 692.43 732.72 C 693.39 734.31 692.98 736.42 694.09 737.97 C 695.39 739.50 695.25 741.59 695.74 743.45 C 697.37 746.74 699.31 750.04 699.56 753.79 C 699.50 755.05 700.63 755.75 701.40 756.58 C 701.66 758.19 701.29 760.06 702.35 761.45 C 704.44 763.72 703.26 767.28 705.54 769.50 C 705.53 773.20 708.15 775.94 708.44 779.58 C 709.97 783.15 712.32 786.49 712.72 790.48 C 713.92 792.61 714.92 794.83 714.78 797.35 C 718.02 799.60 716.00 804.35 718.88 807.07 C 718.03 808.28 717.18 809.50 716.40 810.76 C 684.25 810.93 652.10 810.76 619.95 810.85 C 617.09 811.34 615.29 808.61 612.51 808.48 C 609.64 799.93 606.78 791.31 603.58 782.92 C 603.43 781.83 603.32 780.74 603.25 779.66 C 600.72 778.15 601.71 774.91 600.39 772.70 C 599.25 771.01 599.28 768.98 599.23 767.05 C 595.94 765.23 598.08 760.83 595.50 758.43 C 595.20 754.84 592.71 752.05 592.54 748.45 C 592.42 747.01 590.77 746.26 590.80 744.80 C 590.75 740.07 586.64 736.69 586.23 732.04 C 584.08 726.35 582.45 720.46 580.27 714.77 C 580.46 711.56 577.74 709.38 577.82 706.21 C 578.01 704.62 576.77 703.79 575.73 702.89 C 575.69 701.13 575.64 699.38 575.57 697.64 C 557.39 697.08 539.19 697.54 521.00 697.39 C 481.42 697.49 441.83 697.19 402.25 697.54 C 401.82 699.66 402.08 702.05 400.73 703.87 C 399.34 705.84 400.04 708.56 398.55 710.50 C 397.18 712.50 397.80 715.21 396.32 717.18 C 395.11 718.99 395.62 721.40 394.31 723.17 C 392.84 725.18 393.60 727.99 391.98 729.95 C 390.76 731.75 391.29 734.22 390.03 736.02 C 388.43 737.98 389.36 740.89 387.60 742.77 C 386.45 744.34 387.08 746.53 386.14 748.19 C 383.96 751.11 385.56 755.16 383.24 758.05 C 381.01 766.24 377.69 774.11 375.35 782.29 C 373.55 784.75 374.29 788.12 372.32 790.50 C 371.78 792.87 371.62 795.35 370.08 797.37 C 369.31 802.59 366.55 807.23 362.72 810.81 C 333.16 810.85 303.60 810.84 274.04 810.82 C 270.02 811.04 267.80 806.17 270.08 803.01 C 272.11 800.82 270.64 797.15 273.41 795.45 C 273.36 792.93 273.90 790.52 275.44 788.50 C 275.58 784.83 278.10 782.03 278.37 778.41 C 280.25 775.60 280.00 772.06 281.93 769.28 C 282.34 765.30 284.56 761.94 286.20 758.40 C 286.80 754.94 288.40 751.76 288.93 748.29 C 290.40 746.25 290.64 743.82 291.26 741.49 C 293.05 739.06 292.71 735.81 294.52 733.40 C 294.93 729.20 297.95 725.85 297.41 721.50 C 297.90 721.28 298.87 720.84 299.35 720.62 C 298.80 716.66 301.42 713.47 302.99 710.08 C 304.12 708.45 303.17 706.12 304.41 704.60 C 306.41 702.87 305.45 699.93 306.75 697.84 C 308.09 695.50 307.70 692.54 309.48 690.39 C 309.97 686.60 312.16 683.43 312.64 679.65 C 314.35 677.61 314.54 675.03 314.46 672.49 C 314.96 672.28 315.95 671.85 316.44 671.64 C 316.22 669.04 316.88 666.58 318.27 664.41 C 318.96 660.52 320.84 657.03 322.68 653.59 C 322.57 649.80 325.49 647.16 325.40 643.38 C 327.11 640.93 326.80 637.75 328.45 635.32 C 329.61 633.61 329.22 631.45 329.43 629.52 C 329.92 629.30 330.89 628.85 331.38 628.63 C 331.14 626.03 331.83 623.58 333.22 621.40 C 333.62 618.15 335.61 615.46 336.08 612.24 C 337.19 608.16 340.35 604.87 340.39 600.48 C 343.18 598.11 341.07 593.72 344.31 591.82 C 343.79 587.72 347.16 584.57 346.51 580.45 C 347.00 580.24 347.98 579.82 348.47 579.61 C 348.26 577.03 348.81 574.53 350.27 572.39 C 350.62 569.11 352.54 566.38 353.17 563.20 C 354.07 559.34 357.24 556.27 357.25 552.20 C 357.00 550.64 358.24 549.81 359.27 548.93 C 359.27 546.51 358.99 543.77 361.47 542.44 C 361.51 540.98 361.55 539.53 361.60 538.08 C 364.76 536.48 363.03 532.55 364.90 530.04 C 366.35 524.15 369.22 518.75 370.53 512.81 C 372.05 509.14 374.27 505.75 374.74 501.74 C 376.57 499.77 376.63 497.14 376.55 494.61 C 377.06 494.38 378.07 493.94 378.58 493.72 C 377.73 489.53 381.10 486.56 381.29 482.54 C 383.13 480.66 382.67 477.93 383.67 475.73 C 385.62 473.40 384.80 470.05 386.54 467.60 C 387.23 464.09 389.20 461.03 389.65 457.46 C 390.82 455.05 391.41 452.25 393.46 450.38 C 393.52 448.92 393.57 447.46 393.63 446.01 C 396.28 444.39 395.19 441.05 396.72 438.79 C 398.48 436.62 397.35 433.28 399.61 431.37 C 399.74 427.41 402.45 424.42 402.54 420.48 C 403.06 419.74 403.63 419.05 404.26 418.41 C 404.14 415.65 405.41 413.24 406.19 410.70 C 406.66 406.99 408.94 403.91 410.40 400.57 C 410.60 398.38 411.15 396.28 412.43 394.47 C 412.91 392.35 412.99 390.08 414.49 388.36 C 414.85 384.48 417.50 381.51 417.54 377.57 C 419.38 375.55 419.58 372.92 419.42 370.31 C 419.94 370.10 420.99 369.68 421.52 369.48 C 421.52 366.68 421.43 363.88 421.76 361.11 C 422.31 359.66 423.67 358.49 423.63 356.86 C 423.79 349.90 423.69 342.94 423.80 335.98 C 423.73 334.10 425.17 332.65 426.37 331.40 M 485.66 414.39 C 485.42 416.58 484.71 418.65 483.38 420.43 C 483.23 427.12 479.68 432.98 478.47 439.44 C 475.75 442.57 477.83 447.19 474.94 450.26 C 475.07 454.18 471.74 457.02 472.38 461.00 C 468.95 463.03 471.46 467.50 469.28 470.23 C 467.61 472.15 468.76 475.11 466.99 476.98 C 465.30 479.15 466.79 482.71 463.89 484.10 C 463.67 486.68 464.40 489.62 462.82 491.89 C 461.48 493.93 462.14 496.67 460.61 498.63 C 459.04 500.97 460.38 504.14 458.71 506.44 C 457.26 508.48 457.79 511.20 456.43 513.27 C 455.07 515.07 455.81 517.60 454.58 519.42 C 452.27 521.79 454.09 525.52 452.09 528.07 C 450.59 530.08 451.40 532.91 449.81 534.87 C 448.49 536.66 449.32 539.23 448.00 541.01 C 445.43 543.73 448.20 548.41 444.71 550.59 C 444.64 554.52 442.85 558.14 441.86 561.88 C 439.62 564.58 441.29 568.42 439.28 571.20 C 437.93 572.96 438.60 575.42 437.40 577.25 C 435.41 579.76 436.63 583.32 434.92 585.95 C 433.58 588.01 434.19 590.76 432.67 592.75 C 431.39 594.57 432.26 597.17 430.87 598.90 C 428.95 600.61 429.79 603.35 429.74 605.60 C 468.37 605.58 507.00 605.62 545.63 605.58 C 545.61 602.21 546.27 598.50 543.92 595.70 C 543.18 591.18 540.69 587.07 541.48 582.34 C 540.97 582.11 539.96 581.66 539.45 581.44 C 539.24 579.53 539.74 577.37 538.42 575.78 C 536.61 573.89 537.67 570.94 536.16 568.92 C 534.68 567.18 535.39 564.67 534.28 562.79 C 531.96 559.79 533.72 555.52 530.96 552.73 C 530.89 549.09 528.53 546.20 528.12 542.65 C 526.17 539.63 526.51 535.87 524.45 532.92 C 524.03 530.33 524.47 527.49 522.80 525.27 C 522.04 522.99 522.09 520.42 520.34 518.54 C 520.37 514.59 517.79 511.53 517.42 507.64 C 515.42 505.36 515.93 502.33 515.37 499.60 C 513.57 497.56 513.31 494.95 513.50 492.35 C 513.00 492.14 512.00 491.72 511.50 491.50 C 511.35 489.53 511.85 487.33 510.55 485.65 C 508.96 483.70 509.55 480.94 508.18 478.90 C 506.49 476.49 507.77 473.20 506.24 470.75 C 504.86 469.01 505.10 466.68 504.29 464.72 C 501.69 460.02 501.68 454.34 499.04 449.70 C 498.05 447.05 499.65 443.42 496.55 441.87 C 496.49 440.13 496.44 438.40 496.41 436.68 C 495.91 436.44 494.91 435.96 494.41 435.72 C 494.25 433.72 494.69 431.47 493.35 429.78 C 491.81 427.82 492.44 425.06 491.02 423.05 C 489.64 420.70 490.13 417.83 489.73 415.24 C 488.45 414.64 487.01 414.63 485.66 414.39 Z" />
<path fill="#ffffff" opacity="1.00" d=" M 768.52 447.27 C 800.34 446.98 832.18 447.23 864.00 447.14 C 866.54 446.88 869.15 449.41 868.77 452.00 C 868.76 570.00 868.80 688.00 868.74 806.00 C 869.14 808.58 866.52 811.07 864.00 810.86 C 833.69 810.87 803.37 810.87 773.05 810.86 C 770.61 810.95 767.94 808.57 768.40 806.00 C 768.35 730.00 768.40 654.00 768.38 578.00 C 768.47 534.42 768.20 490.84 768.52 447.27 Z" />
</g>
</svg>
