<?xml version="1.0" encoding="UTF-8" ?>
<!DOCTYPE svg PUBLIC "-//W3C//DTD SVG 1.1//EN" "http://www.w3.org/Graphics/SVG/1.1/DTD/svg11.dtd">
<svg width="1181pt" height="1181pt" viewBox="0 0 1181 1181" version="1.1" xmlns="http://www.w3.org/2000/svg">
<g id="#000000ff">
<path fill="#000000" opacity="1.00" d=" M 0.00 0.00 L 1181.00 0.00 L 1181.00 1181.00 L 0.00 1181.00 L 0.00 0.00 M 749.75 290.63 C 749.33 292.72 748.59 294.77 748.62 296.92 C 748.56 344.47 748.71 392.01 748.54 439.56 C 744.98 439.58 741.44 439.35 737.96 438.66 C 728.29 438.23 718.62 438.52 708.95 438.51 C 704.16 438.35 699.51 439.65 694.74 439.77 C 690.36 440.87 685.78 440.06 681.43 441.25 C 676.62 442.45 671.63 442.57 666.87 443.98 C 633.49 450.51 601.78 465.73 576.03 487.99 C 563.49 499.63 551.56 512.10 542.29 526.57 C 528.65 547.13 519.26 570.49 514.73 594.72 C 512.99 601.79 513.13 609.15 511.63 616.28 C 511.28 626.87 511.48 637.47 511.56 648.06 C 512.31 654.61 513.40 661.15 513.55 667.77 C 515.71 680.97 518.28 694.21 522.87 706.84 C 534.10 739.60 556.76 768.09 585.51 787.25 C 607.69 801.63 633.16 810.24 658.96 815.35 C 664.40 815.44 669.52 817.85 674.99 817.54 C 678.72 817.33 682.33 818.44 686.05 818.49 C 696.03 818.76 706.01 818.71 715.99 818.58 C 720.35 818.47 724.78 818.73 729.08 817.82 C 735.19 817.20 741.43 818.10 747.43 816.43 C 752.38 814.98 757.65 816.10 762.58 814.52 C 767.29 813.08 772.34 813.70 777.02 812.04 C 798.84 807.96 820.34 802.00 840.97 793.74 C 844.35 792.33 848.03 791.41 851.01 789.18 C 853.91 786.23 853.89 781.89 853.08 778.11 C 852.03 773.79 852.78 769.31 852.13 764.95 C 851.07 758.71 851.86 752.35 851.26 746.08 C 850.05 740.80 850.70 735.36 850.49 730.00 C 850.47 585.32 850.48 440.64 850.49 295.96 C 850.59 294.06 849.81 292.31 849.30 290.53 C 816.12 290.45 782.92 290.27 749.75 290.63 M 339.58 331.97 C 338.92 347.62 339.48 363.33 339.29 379.00 C 339.29 520.35 339.30 661.70 339.29 803.05 C 339.28 805.77 339.51 808.49 339.81 811.21 C 352.53 811.88 365.27 811.36 378.00 811.53 C 396.93 811.50 415.86 811.58 434.79 811.49 C 438.16 811.91 440.86 808.15 440.51 805.02 C 440.54 648.66 440.53 492.30 440.52 335.94 C 440.92 333.09 438.49 330.92 436.30 329.58 C 423.57 328.42 410.78 328.92 398.00 328.83 C 382.67 328.88 367.33 328.73 352.01 328.89 C 347.84 329.93 342.68 328.14 339.58 331.97 Z" />
<path fill="#000000" opacity="1.00" d=" M 649.99 547.96 C 667.67 533.38 690.14 524.88 712.97 523.59 C 724.92 523.33 737.07 523.27 748.62 526.69 C 748.61 593.57 748.60 660.44 748.63 727.32 C 743.20 730.45 736.91 729.43 730.95 729.75 C 725.69 730.72 720.32 730.44 714.99 730.54 C 705.23 730.67 695.39 730.19 685.92 727.77 C 671.45 724.69 657.38 718.57 646.33 708.58 C 630.38 694.31 621.41 673.73 617.77 652.95 C 615.96 647.45 616.77 641.63 615.77 636.01 C 615.53 629.33 615.34 622.61 616.32 615.99 C 616.17 610.88 616.82 605.86 618.08 600.92 C 621.44 580.01 633.63 561.14 649.99 547.96 Z" />
</g>
<g id="#ffffffff">
<path fill="#ffffff" opacity="1.00" d=" M 749.75 290.63 C 782.92 290.27 816.12 290.45 849.30 290.53 C 849.81 292.31 850.59 294.06 850.49 295.96 C 850.48 440.64 850.47 585.32 850.49 730.00 C 850.70 735.36 850.05 740.80 851.26 746.08 C 851.86 752.35 851.07 758.71 852.13 764.95 C 852.78 769.31 852.03 773.79 853.08 778.11 C 853.89 781.89 853.91 786.23 851.01 789.18 C 848.03 791.41 844.35 792.33 840.97 793.74 C 820.34 802.00 798.84 807.96 777.02 812.04 C 772.34 813.70 767.29 813.08 762.58 814.52 C 757.65 816.10 752.38 814.98 747.43 816.43 C 741.43 818.10 735.19 817.20 729.08 817.82 C 724.78 818.73 720.35 818.47 715.99 818.58 C 706.01 818.71 696.03 818.76 686.05 818.49 C 682.33 818.44 678.72 817.33 674.99 817.54 C 669.52 817.85 664.40 815.44 658.96 815.35 C 633.16 810.24 607.69 801.63 585.51 787.25 C 556.76 768.09 534.10 739.60 522.87 706.84 C 518.28 694.21 515.71 680.97 513.55 667.77 C 513.40 661.15 512.31 654.61 511.56 648.06 C 511.48 637.47 511.28 626.87 511.63 616.28 C 513.13 609.15 512.99 601.79 514.73 594.72 C 519.26 570.49 528.65 547.13 542.29 526.57 C 551.56 512.10 563.49 499.63 576.03 487.99 C 601.78 465.73 633.49 450.51 666.87 443.98 C 671.63 442.57 676.62 442.45 681.43 441.25 C 685.78 440.06 690.36 440.87 694.74 439.77 C 699.51 439.65 704.16 438.35 708.95 438.51 C 718.62 438.52 728.29 438.23 737.96 438.66 C 741.44 439.35 744.98 439.58 748.54 439.56 C 748.71 392.01 748.56 344.47 748.62 296.92 C 748.59 294.77 749.33 292.72 749.75 290.63 M 649.99 547.96 C 633.63 561.14 621.44 580.01 618.08 600.92 C 616.82 605.86 616.17 610.88 616.32 615.99 C 615.34 622.61 615.53 629.33 615.77 636.01 C 616.77 641.63 615.96 647.45 617.77 652.95 C 621.41 673.73 630.38 694.31 646.33 708.58 C 657.38 718.57 671.45 724.69 685.92 727.77 C 695.39 730.19 705.23 730.67 714.99 730.54 C 720.32 730.44 725.69 730.72 730.95 729.75 C 736.91 729.43 743.20 730.45 748.63 727.32 C 748.60 660.44 748.61 593.57 748.62 526.69 C 737.07 523.27 724.92 523.33 712.97 523.59 C 690.14 524.88 667.67 533.38 649.99 547.96 Z" />
<path fill="#ffffff" opacity="1.00" d=" M 339.58 331.97 C 342.68 328.14 347.84 329.93 352.01 328.89 C 367.33 328.73 382.67 328.88 398.00 328.83 C 410.78 328.92 423.57 328.42 436.30 329.58 C 438.49 330.92 440.92 333.09 440.52 335.94 C 440.53 492.30 440.54 648.66 440.51 805.02 C 440.86 808.15 438.16 811.91 434.79 811.49 C 415.86 811.58 396.93 811.50 378.00 811.53 C 365.27 811.36 352.53 811.88 339.81 811.21 C 339.51 808.49 339.28 805.77 339.29 803.05 C 339.30 661.70 339.29 520.35 339.29 379.00 C 339.48 363.33 338.92 347.62 339.58 331.97 Z" />
</g>
</svg>
