<?xml version="1.0" encoding="UTF-8" ?>
<!DOCTYPE svg PUBLIC "-//W3C//DTD SVG 1.1//EN" "http://www.w3.org/Graphics/SVG/1.1/DTD/svg11.dtd">
<svg width="1181pt" height="1181pt" viewBox="0 0 1181 1181" version="1.1" xmlns="http://www.w3.org/2000/svg">
<g id="#000000ff">
<path fill="#000000" opacity="1.00" d=" M 0.00 0.00 L 1181.00 0.00 L 1181.00 1181.00 L 0.00 1181.00 L 0.00 0.00 M 373.51 328.79 C 376.90 329.43 380.35 329.29 383.77 329.50 C 361.86 329.03 339.88 329.41 317.94 329.65 C 309.40 331.26 300.65 330.08 292.02 330.62 C 289.88 331.38 288.29 333.64 288.56 335.94 C 288.56 492.31 288.57 648.69 288.55 805.07 C 288.29 807.46 290.05 809.33 290.92 811.43 C 321.31 811.64 351.71 811.48 382.10 811.51 C 384.19 811.73 385.86 810.33 387.52 809.29 C 387.74 762.86 387.56 716.43 387.61 670.00 C 387.73 666.40 387.11 662.64 388.44 659.20 C 408.75 659.23 429.06 659.69 449.37 659.27 C 454.50 658.45 459.69 658.72 464.86 658.37 C 469.36 657.36 474.00 657.41 478.56 656.68 C 483.89 656.67 488.97 654.75 494.28 654.45 C 510.36 651.23 526.46 647.32 541.49 640.61 C 573.91 626.73 601.81 601.74 617.74 570.13 C 624.25 556.83 628.66 542.55 631.32 528.01 C 631.31 523.24 633.58 518.80 633.41 514.02 C 633.47 510.77 633.44 507.52 633.63 504.28 C 634.80 497.28 634.51 490.13 634.28 483.06 C 633.18 478.42 633.64 473.64 633.31 468.93 C 632.92 466.16 632.05 463.48 631.61 460.72 C 625.76 425.24 607.46 391.37 578.89 369.12 C 562.84 356.03 544.15 346.44 524.45 340.19 C 513.08 336.01 501.16 333.72 489.30 331.53 C 482.80 331.22 476.54 329.01 469.99 329.33 C 463.06 328.06 455.95 329.11 449.06 327.61 C 433.70 327.42 418.33 327.46 402.97 327.61 C 393.25 329.26 383.32 327.97 373.51 328.79 M 810.50 441.57 C 804.05 443.07 797.32 441.85 790.95 443.78 C 759.27 448.50 727.88 463.05 707.42 488.30 C 694.94 503.57 687.60 522.55 684.68 541.94 C 684.40 550.97 684.35 560.03 684.67 569.06 C 687.05 583.05 691.33 597.03 699.47 608.81 C 708.64 622.80 720.77 634.85 735.11 643.51 C 748.95 652.55 763.66 660.24 778.87 666.74 C 792.21 671.95 805.61 677.05 818.71 682.88 C 828.86 687.55 839.60 692.52 846.34 701.84 C 847.87 704.31 849.82 706.85 849.65 709.93 C 849.56 713.55 850.27 717.49 848.32 720.77 C 845.94 726.45 840.97 730.74 835.24 732.84 C 829.99 734.65 824.60 736.32 819.02 736.68 C 810.18 738.10 801.15 738.88 792.19 738.13 C 788.09 737.26 783.84 738.00 779.77 736.98 C 776.55 736.20 773.21 736.68 769.96 736.20 C 753.35 733.17 736.73 729.67 720.87 723.73 C 709.65 719.85 699.16 714.20 688.70 708.67 C 685.26 706.53 682.67 710.92 682.69 713.92 C 682.70 739.64 682.70 765.37 682.69 791.10 C 682.88 795.04 685.00 799.21 688.76 800.86 C 703.41 807.79 719.08 812.51 734.99 815.43 C 739.41 815.43 743.50 817.48 747.92 817.56 C 752.68 817.80 757.22 819.64 762.02 819.54 C 767.23 819.49 772.35 820.64 777.58 820.58 C 782.96 821.86 788.51 821.32 794.00 821.48 C 799.68 821.45 805.37 821.58 811.05 821.32 C 820.47 819.58 830.23 820.36 839.54 817.88 C 846.87 817.37 853.92 815.15 861.00 813.31 C 881.70 807.36 901.96 797.77 917.12 782.12 C 932.34 767.95 942.48 748.72 946.57 728.41 C 949.79 716.55 948.24 704.12 948.42 691.99 C 946.97 680.81 943.93 669.74 938.95 659.60 C 934.46 650.44 927.84 642.57 920.99 635.10 C 910.55 624.30 897.18 617.17 884.31 609.75 C 871.08 602.78 857.58 596.30 843.57 591.06 C 828.62 586.06 814.43 579.10 800.30 572.19 C 792.65 567.89 784.65 562.66 780.96 554.35 C 778.25 549.31 779.08 543.07 781.49 538.07 C 784.60 530.86 792.19 526.84 799.60 525.49 C 808.84 522.79 818.54 523.33 828.05 523.37 C 832.70 523.56 837.42 523.03 842.02 523.96 C 845.73 524.71 849.58 523.99 853.30 524.76 C 856.81 525.59 860.36 526.32 863.99 526.50 C 880.86 529.57 897.79 533.61 913.27 541.28 C 916.49 542.69 919.56 544.74 923.05 545.38 C 927.22 546.15 930.82 541.97 930.43 537.99 C 930.40 513.98 930.43 489.97 930.41 465.96 C 930.01 462.03 928.95 457.05 924.64 455.67 C 909.20 449.53 892.84 445.39 876.27 444.22 C 871.24 443.09 866.13 442.33 860.97 442.51 C 855.60 442.82 850.41 441.13 845.04 441.44 C 839.99 441.74 835.05 440.39 830.00 440.62 C 823.46 440.34 817.03 441.72 810.50 441.57 Z" />
<path fill="#000000" opacity="1.00" d=" M 388.56 418.73 C 392.43 418.79 396.08 417.14 399.96 417.35 C 417.24 417.71 434.53 417.56 451.81 417.45 C 449.61 418.14 447.25 417.97 444.98 418.15 C 432.66 418.52 420.32 418.34 408.00 417.83 C 403.17 417.69 398.30 417.46 393.51 418.25 C 412.34 418.48 431.19 418.82 450.03 418.42 C 459.21 418.33 468.22 420.27 477.17 422.08 C 493.56 426.29 509.65 434.42 520.14 448.07 C 528.24 458.02 532.66 470.46 534.48 483.04 C 534.71 490.05 534.63 497.07 534.46 504.08 C 532.89 515.19 530.51 526.59 523.99 535.99 C 518.45 544.75 510.18 551.32 501.45 556.69 C 487.85 564.66 472.46 568.99 456.98 571.35 C 448.62 571.63 440.39 573.64 431.99 573.38 C 421.33 573.29 410.65 573.53 399.99 573.27 C 396.59 572.61 393.14 572.62 389.71 572.34 C 388.54 571.55 388.53 570.17 388.55 568.91 C 388.57 518.85 388.54 468.79 388.56 418.73 Z" />
</g>
<g id="#ffffffff">
<path fill="#ffffff" opacity="1.00" d=" M 373.51 328.79 C 383.32 327.97 393.25 329.26 402.97 327.61 C 418.33 327.46 433.70 327.42 449.06 327.61 C 455.95 329.11 463.06 328.06 469.99 329.33 C 476.54 329.01 482.80 331.22 489.30 331.53 C 501.16 333.72 513.08 336.01 524.45 340.19 C 544.15 346.44 562.84 356.03 578.89 369.12 C 607.46 391.37 625.76 425.24 631.61 460.72 C 632.05 463.48 632.92 466.16 633.31 468.93 C 633.64 473.64 633.18 478.42 634.28 483.06 C 634.51 490.13 634.80 497.28 633.63 504.28 C 633.44 507.52 633.47 510.77 633.41 514.02 C 633.58 518.80 631.31 523.24 631.32 528.01 C 628.66 542.55 624.25 556.83 617.74 570.13 C 601.81 601.74 573.91 626.73 541.49 640.61 C 526.46 647.32 510.36 651.23 494.28 654.45 C 488.97 654.75 483.89 656.67 478.56 656.68 C 474.00 657.41 469.36 657.36 464.86 658.37 C 459.69 658.72 454.50 658.45 449.37 659.27 C 429.06 659.69 408.75 659.23 388.44 659.20 C 387.11 662.64 387.73 666.40 387.61 670.00 C 387.56 716.43 387.74 762.86 387.52 809.29 C 385.86 810.33 384.19 811.73 382.10 811.51 C 351.71 811.48 321.31 811.64 290.92 811.43 C 290.05 809.33 288.29 807.46 288.55 805.07 C 288.57 648.69 288.56 492.31 288.56 335.94 C 288.29 333.64 289.88 331.38 292.02 330.62 C 300.65 330.08 309.40 331.26 317.94 329.65 C 339.88 329.41 361.86 329.03 383.77 329.50 C 380.35 329.29 376.90 329.43 373.51 328.79 M 388.56 418.73 C 388.54 468.79 388.57 518.85 388.55 568.91 C 388.53 570.17 388.54 571.55 389.71 572.34 C 393.14 572.62 396.59 572.61 399.99 573.27 C 410.65 573.53 421.33 573.29 431.99 573.38 C 440.39 573.64 448.62 571.63 456.98 571.35 C 472.46 568.99 487.85 564.66 501.45 556.69 C 510.18 551.32 518.45 544.75 523.99 535.99 C 530.51 526.59 532.89 515.19 534.46 504.08 C 534.63 497.07 534.71 490.05 534.48 483.04 C 532.66 470.46 528.24 458.02 520.14 448.07 C 509.65 434.42 493.56 426.29 477.17 422.08 C 468.22 420.27 459.21 418.33 450.03 418.42 C 431.19 418.82 412.34 418.48 393.51 418.25 C 398.30 417.46 403.17 417.69 408.00 417.83 C 420.32 418.34 432.66 418.52 444.98 418.15 C 447.25 417.97 449.61 418.14 451.81 417.45 C 434.53 417.56 417.24 417.71 399.96 417.35 C 396.08 417.14 392.43 418.79 388.56 418.73 Z" />
<path fill="#ffffff" opacity="1.00" d=" M 810.50 441.57 C 817.03 441.72 823.46 440.34 830.00 440.62 C 835.05 440.39 839.99 441.74 845.04 441.44 C 850.41 441.13 855.60 442.82 860.97 442.51 C 866.13 442.33 871.24 443.09 876.27 444.22 C 892.84 445.39 909.20 449.53 924.64 455.67 C 928.95 457.05 930.01 462.03 930.41 465.96 C 930.43 489.97 930.40 513.98 930.43 537.99 C 930.82 541.97 927.22 546.15 923.05 545.38 C 919.56 544.74 916.49 542.69 913.27 541.28 C 897.79 533.61 880.86 529.57 863.99 526.50 C 860.36 526.32 856.81 525.59 853.30 524.76 C 849.58 523.99 845.73 524.71 842.02 523.96 C 837.42 523.03 832.70 523.56 828.05 523.37 C 818.54 523.33 808.84 522.79 799.60 525.49 C 792.19 526.84 784.60 530.86 781.49 538.07 C 779.08 543.07 778.25 549.31 780.96 554.35 C 784.65 562.66 792.65 567.89 800.30 572.19 C 814.43 579.10 828.62 586.06 843.57 591.06 C 857.58 596.30 871.08 602.78 884.31 609.75 C 897.18 617.17 910.55 624.30 920.99 635.10 C 927.84 642.57 934.46 650.44 938.95 659.60 C 943.93 669.74 946.97 680.81 948.42 691.99 C 948.24 704.12 949.79 716.55 946.57 728.41 C 942.48 748.72 932.34 767.95 917.12 782.12 C 901.96 797.77 881.70 807.36 861.00 813.31 C 853.92 815.15 846.87 817.37 839.54 817.88 C 830.23 820.36 820.47 819.58 811.05 821.32 C 805.37 821.58 799.68 821.45 794.00 821.48 C 788.51 821.32 782.96 821.86 777.58 820.58 C 772.35 820.64 767.23 819.49 762.02 819.54 C 757.22 819.64 752.68 817.80 747.92 817.56 C 743.50 817.48 739.41 815.43 734.99 815.43 C 719.08 812.51 703.41 807.79 688.76 800.86 C 685.00 799.21 682.88 795.04 682.69 791.10 C 682.70 765.37 682.70 739.64 682.69 713.92 C 682.67 710.92 685.26 706.53 688.70 708.67 C 699.16 714.20 709.65 719.85 720.87 723.73 C 736.73 729.67 753.35 733.17 769.96 736.20 C 773.21 736.68 776.55 736.20 779.77 736.98 C 783.84 738.00 788.09 737.26 792.19 738.13 C 801.15 738.88 810.18 738.10 819.02 736.68 C 824.60 736.32 829.99 734.65 835.24 732.84 C 840.97 730.74 845.94 726.45 848.32 720.77 C 850.27 717.49 849.56 713.55 849.65 709.93 C 849.82 706.85 847.87 704.31 846.34 701.84 C 839.60 692.52 828.86 687.55 818.71 682.88 C 805.61 677.05 792.21 671.95 778.87 666.74 C 763.66 660.24 748.95 652.55 735.11 643.51 C 720.77 634.85 708.64 622.80 699.47 608.81 C 691.33 597.03 687.05 583.05 684.67 569.06 C 684.35 560.03 684.40 550.97 684.68 541.94 C 687.60 522.55 694.94 503.57 707.42 488.30 C 727.88 463.05 759.27 448.50 790.95 443.78 C 797.32 441.85 804.05 443.07 810.50 441.57 Z" />
</g>
</svg>
