<?xml version="1.0" encoding="UTF-8" ?>
<!DOCTYPE svg PUBLIC "-//W3C//DTD SVG 1.1//EN" "http://www.w3.org/Graphics/SVG/1.1/DTD/svg11.dtd">
<svg width="1181pt" height="1181pt" viewBox="0 0 1181 1181" version="1.1" xmlns="http://www.w3.org/2000/svg">
<g id="#000000ff">
<path fill="#000000" opacity="1.00" d=" M 0.00 0.00 L 1181.00 0.00 L 1181.00 1181.00 L 0.00 1181.00 L 0.00 0.00 M 1028.39 90.87 C 1023.90 132.49 1014.87 173.81 999.64 212.87 C 989.30 239.14 975.35 264.28 956.18 285.17 C 934.72 308.97 908.56 328.02 881.15 344.38 C 846.52 364.94 809.77 381.58 772.87 397.58 C 732.66 414.87 692.10 431.35 651.88 448.61 C 615.36 464.25 578.45 478.97 540.95 492.07 C 503.07 505.55 464.36 516.77 427.39 532.68 C 396.91 545.65 367.39 561.16 340.55 580.66 C 307.75 604.27 278.13 632.36 252.91 663.95 C 241.19 678.56 231.03 694.31 221.18 710.22 C 200.47 743.78 182.34 779.00 167.85 815.71 C 160.05 835.62 152.88 855.87 148.50 876.85 C 137.09 930.78 135.55 986.23 136.52 1041.15 C 137.96 991.27 151.44 941.37 177.88 898.85 C 197.75 866.68 224.92 839.03 256.87 818.79 C 287.95 799.05 321.73 784.04 355.88 770.51 C 396.14 754.86 437.32 741.66 479.05 730.53 C 498.69 725.39 518.40 720.55 537.95 715.06 C 581.03 703.20 623.50 689.14 665.07 672.77 C 700.95 658.75 736.24 643.27 771.25 627.22 C 787.76 619.58 803.55 610.43 818.68 600.36 C 865.37 568.98 906.42 529.77 942.65 486.88 C 974.56 448.36 1003.88 406.61 1021.15 359.30 C 1041.20 304.74 1047.22 245.77 1043.75 187.98 C 1041.67 155.23 1036.87 122.59 1028.39 90.87 Z" />
</g>
<g id="#ffffffff">
<path fill="#ffffff" opacity="1.00" d=" M 1028.39 90.87 C 1036.87 122.59 1041.67 155.23 1043.75 187.98 C 1047.22 245.77 1041.20 304.74 1021.15 359.30 C 1003.88 406.61 974.56 448.36 942.65 486.88 C 906.42 529.77 865.37 568.98 818.68 600.36 C 803.55 610.43 787.76 619.58 771.25 627.22 C 736.24 643.27 700.95 658.75 665.07 672.77 C 623.50 689.14 581.03 703.20 537.95 715.06 C 518.40 720.55 498.69 725.39 479.05 730.53 C 437.32 741.66 396.14 754.86 355.88 770.51 C 321.73 784.04 287.95 799.05 256.87 818.79 C 224.92 839.03 197.75 866.68 177.88 898.85 C 151.44 941.37 137.96 991.27 136.52 1041.15 C 135.55 986.23 137.09 930.78 148.50 876.85 C 152.88 855.87 160.05 835.62 167.85 815.71 C 182.34 779.00 200.47 743.78 221.18 710.22 C 231.03 694.31 241.19 678.56 252.91 663.95 C 278.13 632.36 307.75 604.27 340.55 580.66 C 367.39 561.16 396.91 545.65 427.39 532.68 C 464.36 516.77 503.07 505.55 540.95 492.07 C 578.45 478.97 615.36 464.25 651.88 448.61 C 692.10 431.35 732.66 414.87 772.87 397.58 C 809.77 381.58 846.52 364.94 881.15 344.38 C 908.56 328.02 934.72 308.97 956.18 285.17 C 975.35 264.28 989.30 239.14 999.64 212.87 C 1014.87 173.81 1023.90 132.49 1028.39 90.87 Z" />
</g>
</svg>
