<?xml version="1.0" encoding="UTF-8" ?>
<!DOCTYPE svg PUBLIC "-//W3C//DTD SVG 1.1//EN" "http://www.w3.org/Graphics/SVG/1.1/DTD/svg11.dtd">
<svg width="691pt" height="691pt" viewBox="0 0 691 691" version="1.1" xmlns="http://www.w3.org/2000/svg">
<g id="#ffffffff">
<path fill="#ffffff" opacity="1.00" d=" M 0.00 0.00 L 691.00 0.00 L 691.00 41.85 C 461.08 137.55 231.20 233.41 1.26 329.08 C 2.69 330.40 4.46 331.29 6.23 332.06 C 57.46 351.74 108.63 371.61 159.88 391.24 C 162.66 392.46 166.49 392.99 167.36 396.43 C 194.74 465.14 222.35 533.77 249.75 602.48 C 250.70 604.34 251.69 606.26 251.46 608.45 C 256.44 605.18 260.14 600.47 264.43 596.42 C 297.10 563.74 329.80 531.09 362.44 498.38 C 363.47 496.76 365.29 497.42 366.42 498.52 C 426.41 546.24 486.43 593.94 546.45 641.63 C 549.47 644.36 553.07 646.38 555.95 649.28 C 599.60 452.36 643.55 255.50 687.26 58.57 C 688.10 53.96 689.19 49.38 691.00 45.04 L 691.00 691.00 L 0.00 691.00 L 0.00 0.00 Z" />
<path fill="#ffffff" opacity="1.00" d=" M 427.44 255.40 C 448.98 242.71 470.30 229.62 491.99 217.19 C 478.51 230.34 464.09 242.50 450.43 255.46 C 394.72 306.07 339.24 356.93 283.55 407.56 C 281.90 408.97 281.45 411.18 280.94 413.19 C 272.98 443.31 264.86 473.40 257.01 503.55 C 256.53 504.87 255.94 506.15 255.24 507.38 C 239.41 466.94 222.88 426.73 207.04 386.30 C 214.47 382.48 221.51 377.79 228.80 373.63 C 295.01 334.22 361.23 294.82 427.44 255.40 Z" />
</g>
<g id="#000000ff">
<path fill="#000000" opacity="1.00" d=" M 1.26 329.08 C 231.20 233.41 461.08 137.55 691.00 41.85 L 691.00 45.04 C 689.19 49.38 688.10 53.96 687.26 58.57 C 643.55 255.50 599.60 452.36 555.95 649.28 C 553.07 646.38 549.47 644.36 546.45 641.63 C 486.43 593.94 426.41 546.24 366.42 498.52 C 365.29 497.42 363.47 496.76 362.44 498.38 C 329.80 531.09 297.10 563.74 264.43 596.42 C 260.14 600.47 256.44 605.18 251.46 608.45 C 251.69 606.26 250.70 604.34 249.75 602.48 C 222.35 533.77 194.74 465.14 167.36 396.43 C 166.49 392.99 162.66 392.46 159.88 391.24 C 108.63 371.61 57.46 351.74 6.23 332.06 C 4.46 331.29 2.69 330.40 1.26 329.08 M 427.44 255.40 C 361.23 294.82 295.01 334.22 228.80 373.63 C 221.51 377.79 214.47 382.48 207.04 386.30 C 222.88 426.73 239.41 466.94 255.24 507.38 C 255.94 506.15 256.53 504.87 257.01 503.55 C 264.86 473.40 272.98 443.31 280.94 413.19 C 281.45 411.18 281.90 408.97 283.55 407.56 C 339.24 356.93 394.72 306.07 450.43 255.46 C 464.09 242.50 478.51 230.34 491.99 217.19 C 470.30 229.62 448.98 242.71 427.44 255.40 Z" />
</g>
</svg>
